<svg id="Capa_1" enable-background="new 0 0 512 512" height="512" viewBox="0 0 512 512" width="512" xmlns="http://www.w3.org/2000/svg"><g><path d="m234.779.003h42.425c90.179 0 163.283 73.104 163.283 163.283v283.891h-368.99v-283.891c0-90.179 73.104-163.283 163.282-163.283z" fill="#b16e3d"/><path d="m247.752 0c-35.048 0-63.451 73.107-63.451 163.29v283.885h-112.801v-283.885c0-90.183 73.107-163.29 163.278-163.29z" fill="#985e33"/><path d="m392.458 512h-272.91l6.658-32.424c5.476-26.698 26.278-46.989 52.09-52.453 4.533-.966 9.225-1.466 14.019-1.466h127.378c4.783 0 9.475.5 14.008 1.466 25.812 5.465 46.625 25.755 52.101 52.453z" fill="#80b4fb"/><path d="m218.166 425.657c-2.84 0-5.624.5-8.316 1.466-15.337 5.465-27.686 25.755-30.947 52.453l-3.953 32.424h-55.407l6.658-32.424c5.476-26.698 26.278-46.989 52.09-52.453 4.533-.966 9.225-1.466 14.019-1.466z" fill="#5490f9"/><path d="m293.755 362.605v63.053c0 20.847-16.905 37.752-37.752 37.752-20.859 0-37.763-16.905-37.763-37.752v-63.053z" fill="#ffcbbe"/><path d="m268.332 461.351c-3.863 1.329-8.009 2.056-12.327 2.056-20.859 0-37.764-16.905-37.764-37.752v-63.053h24.653v63.053c.001 16.542 10.635 30.595 25.438 35.696z" fill="#eaac9d"/><path d="m98.272 310.102c-27.222 0-49.29-22.068-49.29-49.29 0-3.747.418-7.396 1.21-10.903 6.394-28.319 48.08-23.674 48.08 5.358h315.457c0-29.032 41.686-33.676 48.08-5.358.792 3.507 1.21 7.156 1.21 10.903 0 27.222-22.068 49.29-49.29 49.29" fill="#eaac9d"/><path d="m98.279 278.603c-2.429 0-4.818-1.142-6.322-3.275-.163-.226-8.224-11.252-16.908-7.746-3.959 1.598-8.459-.317-10.055-4.274-1.597-3.957.317-8.46 4.275-10.056 16.089-6.495 29.785 5.243 35.339 13.202 2.442 3.499 1.586 8.315-1.913 10.758-1.348.939-2.89 1.391-4.416 1.391z" fill="#df9380"/><path d="m413.722 278.579c-1.538 0-3.089-.457-4.438-1.409-3.473-2.452-4.325-7.231-1.892-10.717 5.555-7.958 19.249-19.697 35.339-13.202 3.958 1.596 5.871 6.099 4.275 10.056-1.597 3.956-6.099 5.872-10.055 4.274-8.732-3.523-16.829 7.635-16.91 7.749-1.511 2.116-3.898 3.249-6.319 3.249z" fill="#df9380"/><path d="m218.24 362.605h75.516v58.088h-75.516z" fill="#eaac9d"/><path d="m413.72 199.11v86.638c0 63.484-51.465 114.961-114.961 114.961h-85.536c-63.485 0-114.961-51.465-114.961-114.961v-85.65c19.575-.568 46.511-3.908 75.527-9.804 59.463-12.088 127.719-34.935 159.472-66.688.002 0 31.414 64.189 80.459 75.504z" fill="#ffcbbe"/><path d="m288.751 400.709h-75.527c-63.485 0-114.961-51.465-114.961-114.961v-85.65c19.575-.568 46.511-3.908 75.527-9.804v95.454c0 63.485 51.465 114.961 114.961 114.961z" fill="#eaac9d"/><g fill="#e490b7"><ellipse cx="348.91" cy="293.918" rx="25.819" ry="15.7"/><ellipse cx="163.09" cy="293.918" rx="25.819" ry="15.7"/></g><path d="m271.359 275.547h-30.718c-4.268 0-7.726-3.459-7.726-7.726s3.459-7.726 7.726-7.726h30.718c4.268 0 7.726 3.459 7.726 7.726s-3.458 7.726-7.726 7.726z" fill="#eaac9d"/><g fill="#66b49d"><path d="m187.567 246.56c-1.325-.469-2.675-.955-4.026-1.456v-24.306c2.267.868 3.727 1.965 4.225 2.375 3.297 2.708 8.167 2.231 10.874-1.067 2.708-3.298 2.23-8.167-1.067-10.875-3.403-2.795-8.264-5.28-14.032-6.404v-4.23c0-4.267-3.459-7.726-7.726-7.726s-7.726 3.459-7.726 7.726v4.762c-.465.121-.927.229-1.395.37-9.117 2.746-15.925 10.528-17.768 20.308-1.692 8.976 1.223 17.664 7.609 22.672 3.003 2.356 6.663 4.516 11.554 6.76v32.329c-3.438-.492-6.018-1.67-10.136-4.364-3.571-2.337-8.361-1.334-10.695 2.236-2.336 3.571-1.335 8.36 2.236 10.695 7.275 4.759 12.41 6.438 18.595 6.978v4.714c0 4.267 3.459 7.726 7.726 7.726s7.726-3.459 7.726-7.726v-5.459c12.753-3.253 20.927-14.153 22.733-24.902 2.327-13.845-5.191-26.358-18.707-31.136zm-21.497-10.011c-1.8-1.412-2.569-4.415-1.96-7.651.437-2.32 1.699-4.99 3.978-6.778v15.856c-.725-.468-1.401-.944-2.018-1.427zm24.965 38.585c-.693 4.122-3.237 8.453-7.494 10.926v-24.473c8.183 3.498 7.995 10.57 7.494 13.547z"/><path d="m346.863 246.56c-1.325-.469-2.675-.955-4.026-1.456v-24.316c2.279.875 3.743 1.985 4.241 2.398 3.285 2.725 8.155 2.273 10.88-1.012 2.725-3.284 2.273-8.155-1.011-10.88-1.363-1.131-6.427-4.957-14.111-6.489v-4.209c0-4.267-3.459-7.726-7.726-7.726-4.268 0-7.726 3.459-7.726 7.726v4.743c-.462.12-.926.247-1.395.389-9.117 2.746-15.926 10.528-17.769 20.309-1.691 8.976 1.224 17.663 7.61 22.671 3.003 2.356 6.663 4.516 11.554 6.76v32.331c-3.435-.492-6.02-1.674-10.136-4.366-3.57-2.335-8.36-1.334-10.695 2.237-2.336 3.571-1.335 8.36 2.236 10.695 7.275 4.759 12.41 6.438 18.595 6.978v4.714c0 4.267 3.459 7.726 7.726 7.726 4.268 0 7.726-3.459 7.726-7.726v-5.459c12.753-3.252 20.926-14.153 22.732-24.901 2.329-13.846-5.189-26.359-18.705-31.137zm-21.498-10.011c-1.801-1.412-2.569-4.415-1.96-7.65.437-2.32 1.698-4.991 3.978-6.779v15.857c-.725-.469-1.401-.945-2.018-1.428zm24.965 38.585c-.693 4.121-3.237 8.452-7.494 10.925v-24.473c8.182 3.499 7.995 10.571 7.494 13.548z"/></g><g><path d="m197.405 324.418c0 23.532 26.23 42.609 58.587 42.609s58.587-19.077 58.587-42.609-26.23-19.973-58.587-19.973-58.587-3.559-58.587 19.973z" fill="#454045"/><path d="m299.105 353.254c-10.704 8.468-26.053 13.774-43.113 13.774-17.049 0-32.399-5.295-43.103-13.774 10.703-8.468 26.053-13.773 43.113-13.773 17.05-.001 32.399 5.304 43.103 13.773z" fill="#dd636e"/></g></g></svg>